<?xml version="1.0" encoding="utf-8"?>
<!-- Generator: Adobe Illustrator 21.1.0, SVG Export Plug-In . SVG Version: 6.00 Build 0)  -->
<svg version="1.1" id="Capa_1" xmlns="http://www.w3.org/2000/svg" xmlns:xlink="http://www.w3.org/1999/xlink" x="0px" y="0px"
	 viewBox="0 0 117 32.3" style="enable-background:new 0 0 117 32.3;" xml:space="preserve">
<style type="text/css">
	.st0{fill:#131F6B;}
	.st1{fill:#E24301;}
	.st2{font-family:'FuturaLT';}
	.st3{font-size:4.0515px;}
</style>
<g>
	<polygon class="st0" points="43.4,18.2 48.7,4.1 50.9,4.1 43.4,23.7 35.9,4.1 38.1,4.1 	"/>
	<polygon class="st0" points="52.3,9.7 59,9.7 59,11 53.8,11 53.8,14.8 58.9,14.8 58.9,16.2 53.8,16.2 53.8,21.3 59,21.3 59,22.6 
		52.3,22.6 	"/>
	<polygon class="st1" points="73.7,11.6 73.7,4.1 75.7,4.1 75.7,22.6 73.7,22.6 73.7,13.5 64.2,13.5 64.2,22.6 62.2,22.6 62.2,4.1 
		64.2,4.1 64.2,11.6 	"/>
	<rect x="79" y="9.7" class="st1" width="1.4" height="12.9"/>
	<g>
		<path class="st0" d="M97.8,8.2c-0.7-0.8-1.6-1.4-2.6-1.8s-2-0.6-3.1-0.6c-1,0-2,0.2-2.9,0.6s-1.7,1-2.4,1.7
			c-0.7,0.7-1.2,1.5-1.6,2.4c-0.4,0.9-0.6,1.9-0.6,2.9s0.2,2,0.6,2.9s0.9,1.7,1.6,2.4c0.7,0.7,1.5,1.3,2.4,1.7
			c0.9,0.4,1.9,0.6,2.9,0.6s2.1-0.2,3-0.7c1-0.4,1.8-1,2.6-1.8V21c-0.8,0.6-1.7,1-2.6,1.3s-1.9,0.5-2.9,0.5c-1.3,0-2.5-0.2-3.7-0.7
			s-2.2-1.2-3.1-2c-0.9-0.9-1.6-1.9-2.1-3c-0.5-1.2-0.8-2.4-0.8-3.7s0.3-2.6,0.8-3.7c0.5-1.2,1.2-2.2,2.1-3.1s1.9-1.6,3.1-2.1
			s2.4-0.8,3.7-0.8c2.1,0,3.9,0.6,5.5,1.8L97.8,8.2L97.8,8.2z"/>
	</g>
	<polygon class="st0" points="100.7,9.7 107.4,9.7 107.4,11 102.1,11 102.1,14.8 107.2,14.8 107.2,16.2 102.1,16.2 102.1,21.3 
		107.4,21.3 107.4,22.6 100.7,22.6 	"/>
	<g>
		<path class="st1" d="M19.9,22l6.4-17.2c-1.9-1.1-4.1-1.7-6.4-1.7s-4.5,0.6-6.4,1.7L19.9,22z"/>
		<path class="st1" d="M28.5,6.4l-8.6,22.4L11.3,6.4C8.7,8.7,7,12.2,7,16c0,7.1,5.8,12.9,12.9,12.9S32.8,23.1,32.8,16
			C32.8,12.2,31.1,8.7,28.5,6.4"/>
	</g>
</g>
<text transform="matrix(1 0 0 1 36.2529 29.0021)" class="st0 st2 st3">VETERINARY HISTOPATHOLOGY CENTER</text>
</svg>
